<?xml version="1.0" encoding="iso-8859-1"?>
<!-- Generator: Adobe Illustrator 19.0.0, SVG Export Plug-In . SVG Version: 6.00 Build 0)  -->
<svg version="1.1" id="Layer_1" xmlns="http://www.w3.org/2000/svg" xmlns:xlink="http://www.w3.org/1999/xlink" x="0px" y="0px"
	 viewBox="0 0 512 512" style="enable-background:new 0 0 512 512;" xml:space="preserve">
<circle style="fill:#8C8484;" cx="256" cy="256" r="247.83"/>
<circle style="fill:#FBCD18;" cx="256" cy="256" r="162.587"/>
<g>
	<path style="fill:#FEF7D8;" d="M234.213,234.213L321.155,256c0,45.655-29.173,82.661-65.155,82.661L234.213,234.213z"/>
	<path style="fill:#FEF7D8;" d="M256,173.339l21.787,104.448L190.845,256C190.845,210.345,220.018,173.339,256,173.339z"/>
</g>
<g>
	<path style="fill:#FFE991;" d="M321.155,256H256v-82.661C291.982,173.339,321.155,210.345,321.155,256z"/>
	<path style="fill:#FFE991;" d="M256,256v82.661c-35.982,0-65.155-37.006-65.155-82.661H256z"/>
</g>
<path d="M437.019,74.981C388.668,26.628,324.38,0,256,0S123.332,26.628,74.981,74.981C26.628,123.332,0,187.62,0,256
	s26.628,132.668,74.981,181.019C123.332,485.372,187.62,512,256,512s132.668-26.628,181.019-74.981
	C485.372,388.668,512,324.38,512,256S485.372,123.332,437.019,74.981z M256,16.34c132.149,0,239.66,107.51,239.66,239.66
	c0,42.972-11.377,83.333-31.264,118.244h-85.331c29.514-30.707,47.687-72.391,47.687-118.244
	c0-94.154-76.598-170.752-170.752-170.752S85.248,161.846,85.248,256c0,45.853,18.173,87.538,47.687,118.244H47.604
	C27.718,339.333,16.34,298.972,16.34,256C16.34,123.851,123.851,16.34,256,16.34z M101.588,256
	c0-85.143,69.268-154.412,154.412-154.412S410.412,170.857,410.412,256S341.143,410.412,256,410.412S101.588,341.143,101.588,256z
	 M256,495.66c-82.296,0-155.03-41.7-198.201-105.075h93.233c28.977,22.65,65.423,36.168,104.968,36.168
	s75.991-13.517,104.968-36.168h93.233C411.03,453.96,338.296,495.66,256,495.66z M328.794,461.206c0,4.512-3.658,8.17-8.17,8.17
	H191.376c-4.512,0-8.17-3.658-8.17-8.17s3.658-8.17,8.17-8.17h129.248C325.136,453.036,328.794,456.693,328.794,461.206z
	 M405.973,128.221c-2.928-3.433-2.519-8.59,0.915-11.518c3.433-2.928,8.59-2.52,11.518,0.915
	c32.868,38.538,50.97,87.684,50.97,138.383c0,34.342-7.912,67.137-23.516,97.473c-1.449,2.816-4.308,4.435-7.273,4.435
	c-1.258,0-2.535-0.292-3.73-0.906c-4.013-2.064-5.592-6.99-3.528-11.003c14.404-28.001,21.707-58.281,21.707-89.998
	C453.036,209.185,436.322,163.805,405.973,128.221z M66.137,353.468C50.535,323.134,42.623,290.34,42.623,256
	c0-50.699,18.102-99.844,50.97-138.383c2.928-3.433,8.085-3.843,11.518-0.915c3.434,2.928,3.843,8.085,0.915,11.518
	C75.678,163.805,58.964,209.185,58.964,256c0,31.716,7.303,61.994,21.704,89.994c2.064,4.013,0.484,8.939-3.528,11.003
	c-1.196,0.614-2.473,0.906-3.73,0.906C70.446,357.903,67.586,356.286,66.137,353.468z M116.702,105.111
	c-2.928-3.433-2.519-8.59,0.915-11.518c38.538-32.868,87.684-50.97,138.383-50.97c19.177,0,38.225,2.56,56.614,7.609
	c4.351,1.195,6.91,5.691,5.716,10.042c-1.195,4.351-5.689,6.911-10.042,5.716c-16.98-4.662-34.572-7.026-52.288-7.026
	c-46.815,0-92.195,16.714-127.779,47.063c-1.538,1.312-3.423,1.953-5.298,1.953C120.613,107.981,118.319,107.007,116.702,105.111z
	 M333.74,65.863c1.875-4.104,6.721-5.909,10.826-4.036c17.961,8.206,34.721,18.894,49.815,31.767
	c3.434,2.928,3.843,8.085,0.915,11.518c-1.616,1.894-3.911,2.868-6.22,2.868c-1.875,0-3.759-0.642-5.298-1.953
	c-13.942-11.89-29.419-21.761-46.003-29.337C333.673,74.815,331.865,69.968,333.74,65.863z M208.552,166.509l14.958,4.86
	c-0.039,0.651-0.065,1.305-0.065,1.966c0,0.427,0.021,0.854,0.037,1.28C199.321,189.488,182.67,220.374,182.67,256
	c0,50.087,32.895,90.835,73.329,90.835s73.329-40.749,73.329-90.835c0-35.624-16.649-66.508-40.807-81.383
	c0.017-0.427,0.033-0.855,0.033-1.283c0-0.66-0.026-1.315-0.065-1.966l14.958-4.86c4.291-1.394,6.641-6.003,5.245-10.294
	c-1.394-4.291-6.007-6.643-10.294-5.245l-14.971,4.864c-0.708-1.105-1.473-2.169-2.304-3.178l9.251-12.732
	c2.653-3.65,1.842-8.76-1.808-11.412c-3.652-2.653-8.761-1.843-11.412,1.808l-9.247,12.728c-1.214-0.478-2.458-0.894-3.738-1.226
	V126.1c0-4.512-3.658-8.17-8.17-8.17c-4.512,0-8.17,3.658-8.17,8.17v15.721c-1.279,0.331-2.524,0.747-3.738,1.226l-9.247-12.728
	c-2.653-3.65-7.762-4.46-11.412-1.808c-3.65,2.653-4.46,7.762-1.808,11.412l9.251,12.732c-0.832,1.009-1.597,2.073-2.304,3.178
	l-14.972-4.864c-4.291-1.398-8.9,0.954-10.294,5.245C201.911,160.505,204.26,165.115,208.552,166.509z M270.953,167.068
	c-4.829-1.244-9.829-1.904-14.953-1.904c-5.123,0-10.123,0.659-14.953,1.904c2.455-5.837,8.232-9.947,14.953-9.947
	S268.496,161.231,270.953,167.068z M247.83,182.282v65.548h-48.469C202.189,214.11,222.297,187.096,247.83,182.282z M199.361,264.17
	h48.469v65.548C222.297,324.904,202.189,297.89,199.361,264.17z M264.17,329.718V264.17h48.469
	C309.811,297.89,289.703,324.904,264.17,329.718z M312.639,247.83H264.17v-65.548C289.703,187.096,309.811,214.11,312.639,247.83z
	 M256,383.281l-6.946,7.397c-3.088,3.29-8.26,3.452-11.549,0.363c-3.29-3.088-3.451-8.26-0.363-11.549l1.534-1.633
	c-16.324-3.128-31.791-10.627-45.097-21.833l-32.793-6.474c-4.427-0.874-7.307-5.171-6.433-9.598
	c0.875-4.427,5.171-7.306,9.598-6.433l10.821,2.136c-4.726-6.553-8.801-13.626-12.226-21.085l-27.235-18.752
	c-3.717-2.559-4.655-7.646-2.096-11.363c2.558-3.717,7.645-4.656,11.363-2.096l9.144,6.297c-1.816-7.822-2.974-15.883-3.453-24.085
	l-18.821-27.047c-2.577-3.704-1.663-8.796,2.04-11.373c3.703-2.576,8.797-1.663,11.373,2.04l6.346,9.119
	c1.058-8.197,2.815-16.201,5.222-23.916l-7.599-32.362c-1.032-4.392,1.693-8.79,6.086-9.822c4.388-1.031,8.789,1.693,9.822,6.086
	l2.543,10.83c3.132-5.579,6.643-10.899,10.562-15.872c2.793-3.545,7.931-4.153,11.474-1.36c3.544,2.793,4.153,7.931,1.36,11.474
	c-15.7,19.919-24.346,46.067-24.346,73.628s8.646,53.709,24.346,73.627c3.568,4.526,7.454,8.639,11.596,12.315
	c0.317,0.242,0.619,0.5,0.895,0.783c15.201,13.147,33.747,20.451,52.834,20.451s37.634-7.303,52.834-20.452
	c0.276-0.282,0.577-0.54,0.893-0.781c4.142-3.678,8.029-7.79,11.597-12.317c15.7-19.918,24.346-46.065,24.346-73.626
	s-8.646-53.709-24.346-73.627c-2.793-3.544-2.185-8.681,1.36-11.474c3.542-2.792,8.68-2.185,11.474,1.36
	c3.92,4.973,7.431,10.293,10.562,15.872l2.543-10.832c1.032-4.393,5.428-7.12,9.822-6.086c4.393,1.032,7.118,5.428,6.086,9.822
	l-7.598,32.363c2.407,7.715,4.165,15.718,5.222,23.915l6.346-9.119c2.577-3.704,7.67-4.617,11.373-2.04
	c3.704,2.577,4.617,7.669,2.04,11.373l-18.821,27.047c-0.479,8.203-1.637,16.264-3.453,24.085l9.145-6.297
	c3.718-2.559,8.804-1.62,11.363,2.096c2.559,3.717,1.621,8.804-2.096,11.363l-27.236,18.752
	c-3.424,7.459-7.499,14.532-12.225,21.085l10.821-2.136c4.42-0.875,8.724,2.005,9.598,6.433c0.874,4.426-2.006,8.724-6.433,9.598
	l-32.792,6.474c-13.308,11.206-28.773,18.704-45.097,21.833l1.534,1.633c3.088,3.29,2.927,8.46-0.363,11.549
	c-1.576,1.48-3.586,2.215-5.592,2.215c-2.178,0-4.349-0.865-5.958-2.577L256,383.281z"/>
<g>
</g>
<g>
</g>
<g>
</g>
<g>
</g>
<g>
</g>
<g>
</g>
<g>
</g>
<g>
</g>
<g>
</g>
<g>
</g>
<g>
</g>
<g>
</g>
<g>
</g>
<g>
</g>
<g>
</g>
</svg>
