<?xml version="1.0" encoding="iso-8859-1"?>
<!-- Generator: Adobe Illustrator 19.0.0, SVG Export Plug-In . SVG Version: 6.00 Build 0)  -->
<svg version="1.1" id="Capa_1" xmlns="http://www.w3.org/2000/svg" xmlns:xlink="http://www.w3.org/1999/xlink" x="0px" y="0px"
	 viewBox="0 0 480 480" style="enable-background:new 0 0 480 480;" xml:space="preserve">
<path style="fill:#9ACD72;" d="M353.992,139.2l-98.4-78.704c-9.041-7.236-21.96-6.983-30.712,0.6L125.52,147.2
	c-3.51,3.042-5.524,7.459-5.52,12.104V456c0,8.837,7.163,16,16,16h208c8.837,0,16-7.163,16-16V151.688
	C359.997,146.829,357.787,142.234,353.992,139.2L353.992,139.2z M240,144c-13.255,0-24-10.745-24-24s10.745-24,24-24
	c13.255,0,24,10.745,24,24S253.255,144,240,144z"/>
<path d="M112,159.304V456c0,13.255,10.745,24,24,24h208c13.255,0,24-10.745,24-24V151.688c0.014-7.295-3.303-14.197-9.008-18.744
	L260.608,54.24c-3.702-2.922-8.01-4.983-12.608-6.032V0h-16v48.528c-4.548,1.229-8.765,3.457-12.344,6.52l-99.376,86.12
	C115.021,145.727,112,152.344,112,159.304L112,159.304z M248,106.224c7.653,4.418,10.275,14.204,5.856,21.856
	c-4.418,7.653-14.204,10.275-21.856,5.856s-10.275-14.204-5.856-21.856c1.404-2.432,3.424-4.452,5.856-5.856V120h16V106.224z
	 M128,159.304c0.001-2.318,1.008-4.522,2.76-6.04l99.376-86.12c0.586-0.495,1.209-0.944,1.864-1.344v23.336
	c-17.112,4.418-27.402,21.872-22.984,38.984c4.418,17.112,21.872,27.402,38.984,22.984c17.112-4.418,27.402-21.872,22.984-38.984
	c-2.91-11.272-11.712-20.074-22.984-22.984v-23.84c0.914,0.395,1.787,0.877,2.608,1.44l98.4,78.704
	c1.9,1.517,3.007,3.816,3.008,6.248V456c0,4.418-3.582,8-8,8H136c-4.418,0-8-3.582-8-8L128,159.304z"/>
<path d="M252,344h-24c-6.627,0-12-5.373-12-12c0-6.627,5.373-12,12-12l0,0h44v-16h-24v-16h-16v16h-4c-15.464,0-28,12.536-28,28
	c0,15.464,12.536,28,28,28h24c6.627,0,12,5.373,12,12c0,6.627-5.373,12-12,12h-44v16h24v16h16v-16h4c15.464,0,28-12.536,28-28
	C280,356.536,267.464,344,252,344z"/>
<path d="M152,184h112v16H152V184z"/>
<path d="M152,216h88v16h-88V216z"/>
<path d="M152,248h136v16H152V248z"/>
<path d="M296,432h40v16h-40V432z"/>
<path d="M280,184h48v16h-48V184z"/>
<g>
</g>
<g>
</g>
<g>
</g>
<g>
</g>
<g>
</g>
<g>
</g>
<g>
</g>
<g>
</g>
<g>
</g>
<g>
</g>
<g>
</g>
<g>
</g>
<g>
</g>
<g>
</g>
<g>
</g>
</svg>
