<svg id="Layer_1" enable-background="new 0 0 512 512" height="512" viewBox="0 0 512 512" width="512" xmlns="http://www.w3.org/2000/svg"><g><g><path d="m44 360c-4.418 0-8-3.582-8-8v-16c0-22.056 17.944-40 40-40h32c4.418 0 8 3.582 8 8s-3.582 8-8 8h-32c-13.233 0-24 10.767-24 24v16c0 4.418-3.582 8-8 8z" fill="#00d2d2"/></g><g><path d="m380 496h-240c-17.673 0-32-14.327-32-32v-416c0-17.673 14.327-32 32-32h240c17.673 0 32 14.327 32 32v416c0 17.673-14.327 32-32 32z" fill="#a5c3dc"/></g><g><path d="m332 496h-192c-17.673 0-32-14.327-32-32v-416c0-17.673 14.327-32 32-32h192c17.673 0 32 14.327 32 32v416c0 17.673-14.327 32-32 32z" fill="#d7e6f0"/></g><g><path d="m316 464h-160c-8.837 0-16-7.163-16-16v-368h192v368c0 8.837-7.163 16-16 16z" fill="#555a6e"/></g><g><path d="m260 56h-48c-4.418 0-8-3.582-8-8 0-4.418 3.582-8 8-8h48c4.418 0 8 3.582 8 8 0 4.418-3.582 8-8 8z" fill="#555a6e"/></g><g><path d="m268 112h48v-16c0-8.837 7.163-16 16-16h-48c-8.837 0-16 7.163-16 16z" fill="#00d2d2"/></g><g><path d="m292 136c-13.255 0-24-10.745-24-24h48c0 13.255-10.745 24-24 24z" fill="#289bc3"/></g><g><path d="m220 112h48v-16c0-8.837 7.163-16 16-16h-48c-8.837 0-16 7.163-16 16z" fill="#ff6e91"/></g><g><path d="m244 136c-13.255 0-24-10.745-24-24h48c0 13.255-10.745 24-24 24z" fill="#e64178"/></g><g><path d="m172 112h48v-16c0-8.837 7.163-16 16-16h-48c-8.837 0-16 7.163-16 16z" fill="#00d2d2"/></g><g><path d="m196 136c-13.255 0-24-10.745-24-24h48c0 13.255-10.745 24-24 24z" fill="#289bc3"/></g><g><path d="m124 112h48v-16c0-8.837 7.163-16 16-16h-48c-8.837 0-16 7.163-16 16z" fill="#ff6e91"/></g><g><path d="m148 136c-13.255 0-24-10.745-24-24h48c0 13.255-10.745 24-24 24z" fill="#e64178"/></g><g><g><path d="m175.373 496h284.627c8.837 0 16-7.163 16-16v-160c0-8.837-7.163-16-16-16h-284.627c-7.198 0-14.017 3.231-18.575 8.802l-59.732 73.006c-3.276 4.004-5.066 9.019-5.066 14.192 0 5.173 1.79 10.188 5.066 14.192l59.732 73.006c4.558 5.571 11.377 8.802 18.575 8.802z" fill="#e64178"/></g><g><path d="m175.373 496h260.627c8.837 0 16-7.163 16-16v-160c0-8.837-7.163-16-16-16h-260.627c-7.198 0-14.017 3.231-18.575 8.802l-59.732 73.006c-3.276 4.004-5.066 9.019-5.066 14.192 0 5.173 1.79 10.188 5.066 14.192l59.732 73.006c4.558 5.571 11.377 8.802 18.575 8.802z" fill="#ff6e91"/></g><g><circle cx="132" cy="400" fill="#e64178" r="24"/></g><g fill="#d7e6f0"><path d="m200 336c-15.439 0-28 12.561-28 28v14.459c0 11.516 6.909 21.72 17.601 25.997l14.856 5.942c4.582 1.833 7.543 6.207 7.543 11.142v14.46c0 6.617-5.383 12-12 12s-12-5.383-12-12v-4c0-4.418-3.582-8-8-8s-8 3.582-8 8v4c0 15.439 12.561 28 28 28s28-12.561 28-28v-14.459c0-11.516-6.909-21.72-17.601-25.997l-14.856-5.942c-4.582-1.833-7.543-6.207-7.543-11.142v-14.46c0-6.617 5.383-12 12-12s12 5.383 12 12v4c0 4.418 3.582 8 8 8s8-3.582 8-8v-4c0-15.439-12.561-28-28-28z"/><path d="m272 336c-15.439 0-28 12.561-28 28v92c0 4.418 3.582 8 8 8s8-3.582 8-8v-48h24v48c0 4.418 3.582 8 8 8s8-3.582 8-8v-92c0-15.439-12.561-28-28-28zm-12 56v-28c0-6.617 5.383-12 12-12s12 5.383 12 12v28z"/><path d="m364 448h-24c-4.411 0-8-3.589-8-8v-96c0-4.418-3.582-8-8-8s-8 3.582-8 8v96c0 13.233 10.767 24 24 24h24c4.418 0 8-3.582 8-8s-3.582-8-8-8z"/><path d="m428 448h-24c-4.411 0-8-3.589-8-8v-32h16c4.418 0 8-3.582 8-8s-3.582-8-8-8h-16v-32c0-4.411 3.589-8 8-8h24c4.418 0 8-3.582 8-8s-3.582-8-8-8h-24c-13.233 0-24 10.767-24 24v80c0 13.233 10.767 24 24 24h24c4.418 0 8-3.582 8-8s-3.582-8-8-8z"/></g></g><g><path d="m132 408h-56c-22.056 0-40-17.944-40-40v-16c0-4.418 3.582-8 8-8s8 3.582 8 8v16c0 13.234 10.767 24 24 24h56c4.418 0 8 3.582 8 8s-3.582 8-8 8z" fill="#00d2d2"/></g><g><g><path d="m276 274.667h-80c-17.673 0-32-14.327-32-32v-50.667c0-17.673 14.327-32 32-32h80c17.673 0 32 14.327 32 32v50.667c0 17.673-14.327 32-32 32z" fill="#289bc3"/></g><g><path d="m244 274.667h-48c-17.673 0-32-14.327-32-32v-50.667c0-17.673 14.327-32 32-32h48c17.673 0 32 14.327 32 32v50.667c0 17.673-14.327 32-32 32z" fill="#00d2d2"/></g><g fill="#d7e6f0"><circle cx="204" cy="184" r="14"/><circle cx="236" cy="248" r="14"/><path d="m247.087 170.855c-2.842-1.705-6.526-.783-8.231 2.058l-48 80c-1.705 2.841-.784 6.527 2.058 8.232.967.58 2.03.856 3.081.856 2.038 0 4.025-1.039 5.15-2.914l48-80c1.705-2.841.784-6.527-2.058-8.232z"/></g></g></g></svg>